<svg width="16" height="15" viewBox="0 0 16 15" fill="none" xmlns="http://www.w3.org/2000/svg">
<path fill-rule="evenodd" clip-rule="evenodd" d="M13.3658 2.19368C12.7198 1.5415 11.8976 0.948617 11.0166 0.592885C10.077 0.177866 9.07859 0 7.96274 0C6.8469 0 5.8485 0.177866 4.90884 0.592885C3.96918 1.00791 3.2057 1.5415 2.50096 2.25296C1.85494 2.96443 1.32638 3.73518 0.915281 4.6838C0.562907 5.57312 0.386719 6.58103 0.386719 7.58893C0.386719 8.59684 0.562907 9.60475 0.915281 10.4941C1.26765 11.3834 1.73748 12.1542 2.3835 12.8063L4.43901 8.89328L6.55325 10.9684L8.84368 5.33597L7.84528 4.92095L9.19605 3.91304L10.5468 2.90514L10.723 4.56522L10.8992 6.2253L9.9008 5.81028L6.90562 13.0435L4.67393 10.7905L3.2057 13.5178C3.67553 13.8735 4.2041 14.17 4.73266 14.4071C5.67232 14.8221 6.67071 15 7.78655 15C8.9024 15 9.9008 14.8221 10.8405 14.4071C12.6611 13.6364 14.0705 12.2134 14.7753 10.3755C15.1277 9.48617 15.3038 8.47826 15.3038 7.47036C15.3038 6.46245 15.1277 5.45455 14.7753 4.56522C14.5404 3.67589 14.0118 2.84585 13.3658 2.19368Z" fill="#57697A"/>
</svg>
