<svg width="15" height="15" viewBox="0 0 15 15" fill="none" xmlns="http://www.w3.org/2000/svg">
<g clip-path="url(#clip0_731_3185)">
<path d="M6.8477 3.3677C6.7802 1.5002 5.2127 0.0376953 3.3377 0.105195C1.5302 0.165195 0.0901953 1.6502 0.0751953 3.4652V11.5427C0.0751953 13.4102 1.5902 14.9252 3.4577 14.9252C4.3577 14.9252 5.2202 14.5652 5.8577 13.9352L8.1602 11.6327C8.2577 13.5002 9.8477 14.9402 11.7152 14.8427C13.4852 14.7527 14.8877 13.3127 14.9327 11.5352V3.4652C14.9252 1.5902 13.4102 0.0751953 11.5427 0.0751953C10.6427 0.0751953 9.7802 0.435195 9.1427 1.0652L6.8477 3.3677Z" fill="#57697A"/>
<path d="M7.50035 10.8904C9.3726 10.8904 10.8904 9.3726 10.8904 7.50035C10.8904 5.62811 9.3726 4.11035 7.50035 4.11035C5.62811 4.11035 4.11035 5.62811 4.11035 7.50035C4.11035 9.3726 5.62811 10.8904 7.50035 10.8904Z" fill="white"/>
</g>
<defs>
<clipPath id="clip0_731_3185">
<rect width="15" height="15" fill="white"/>
</clipPath>
</defs>
</svg>
