<svg xmlns="http://www.w3.org/2000/svg" width="110.8" height="87.702" viewBox="0 0 110.8 87.702">
  <path id="twitter" d="M-139.5,363.7a46.458,46.458,0,0,1-13,3.5,22.183,22.183,0,0,0,10-12.3,49.957,49.957,0,0,1-14.4,5.3,22.9,22.9,0,0,0-16.6-7c-12.5,0-22.7,9.9-22.7,22.1a22.2,22.2,0,0,0,.6,5.1,64.829,64.829,0,0,1-46.8-23.1,21.87,21.87,0,0,0-3.1,11.1,21.729,21.729,0,0,0,10.1,18.4,23.341,23.341,0,0,1-10.3-2.8v.3A22.181,22.181,0,0,0-227.5,406a23.394,23.394,0,0,1-10.2.4,22.726,22.726,0,0,0,21.3,15.4,46.318,46.318,0,0,1-28.2,9.5,48.867,48.867,0,0,1-5.4-.3,65.409,65.409,0,0,0,34.9,9.9c41.8,0,64.6-33.7,64.6-63a26.2,26.2,0,0,0-.1-2.8,46.146,46.146,0,0,0,11.4-11.5Z" transform="translate(250 -353.2)" fill="#0173CD"/>
</svg>
